<svg version="1.1" xmlns="http://www.w3.org/2000/svg" viewBox="0 0 32 32">
<title>link</title>
<path d="M14.792 23.794l-4.842 4.842c-0.88 0.88-2.050 1.364-3.293 1.364-2.568 0-4.657-2.089-4.657-4.657 0-1.244 0.484-2.413 1.364-3.293l8.686-8.685c1.763-1.76 4.833-1.758 6.588 0.002l1.416-1.412c-2.515-2.521-6.901-2.521-9.418-0.004l-8.685 8.685c-1.258 1.258-1.95 2.929-1.95 4.707 0 3.671 2.986 6.657 6.657 6.657 1.778 0 3.449-0.692 4.707-1.95l6.132-6.132c-0.28 0.027-0.554 0.082-0.839 0.082-0.64 0-1.264-0.074-1.865-0.206z"></path>
<path d="M25.343 0c-1.778 0-3.449 0.692-4.707 1.95l-6.132 6.132c0.28-0.027 0.554-0.082 0.839-0.082 0.638 0 1.252 0.089 1.85 0.221l4.857-4.857c0.88-0.88 2.049-1.364 3.293-1.364 2.568 0 4.657 2.089 4.657 4.657 0 1.244-0.484 2.413-1.364 3.293l-8.686 8.686c-1.764 1.761-4.834 1.758-6.592-0.005l-1.416 1.412c1.258 1.262 2.933 1.957 4.715 1.957 1.778 0 3.449-0.692 4.707-1.95l8.686-8.685c1.258-1.258 1.95-2.929 1.95-4.707 0-3.671-2.986-6.657-6.657-6.657v0z"></path>
</svg>
